{
 "cells": [
  {
   "cell_type": "markdown",
   "id": "9496f57f",
   "metadata": {},
   "source": [
    "# this is a notebook just for testing"
   ]
  },
  {
   "cell_type": "code",
   "execution_count": 1,
   "id": "06157ea0",
   "metadata": {},
   "outputs": [
    {
     "name": "stdout",
     "output_type": "stream",
     "text": [
      "3.8.10\n"
     ]
    }
   ],
   "source": [
    "from platform import python_version\n",
    "print(python_version())"
   ]
  },
  {
   "cell_type": "code",
   "execution_count": 1,
   "id": "d92d1881",
   "metadata": {},
   "outputs": [
    {
     "name": "stdout",
     "output_type": "stream",
     "text": [
      "Input #0, yuv4mpegpipe, from 'test_vids/srcRAW_HD/big_buck_bunny_720p24.y4m':\r\n",
      "  Duration: 00:09:56.46, start: 0.000000, bitrate: 265421 kb/s\r\n",
      "  Stream #0:0: Video: rawvideo (I420 / 0x30323449), yuv420p(progressive), 1280x720, SAR 1:1 DAR 16:9, 24 fps, 24 tbr, 24 tbn\r\n"
     ]
    }
   ],
   "source": [
    "#show info\n",
    "!ffprobe -hide_banner test_vids/srcRAW_HD/big_buck_bunny_720p24.y4m"
   ]
  },
  {
   "cell_type": "markdown",
   "id": "6e35de96",
   "metadata": {},
   "source": [
    "[1920 \u0002 1080; 1536 \u0002 864; 1216 \u0002 684; 960 \u0002 540; 768 \u0002 432; 608 \u0002 342; 480 \u0002 270; 384 \u0002 216; 320 \u0002 180; 256 \u0002 144]"
   ]
  },
  {
   "cell_type": "code",
   "execution_count": null,
   "id": "7ec40bfb",
   "metadata": {},
   "outputs": [],
   "source": [
    "!ffplay -f rawvideo -video_size 640x360 test_vids/downsampled/smithy_640.yuv"
   ]
  },
  {
   "cell_type": "code",
   "execution_count": 3,
   "id": "c1f5cb03",
   "metadata": {
    "scrolled": false
   },
   "outputs": [
    {
     "name": "stdout",
     "output_type": "stream",
     "text": [
      "{'programs': [], 'streams': [{'index': 0, 'codec_name': 'hevc', 'codec_long_name': 'H.265 / HEVC (High Efficiency Video Coding)', 'profile': 'Main', 'codec_type': 'video', 'codec_tag_string': 'hev1', 'codec_tag': '0x31766568', 'width': 3840, 'height': 2160, 'coded_width': 3840, 'coded_height': 2160, 'closed_captions': 0, 'film_grain': 0, 'has_b_frames': 2, 'pix_fmt': 'yuv420p', 'level': 153, 'color_range': 'tv', 'chroma_location': 'left', 'field_order': 'progressive', 'refs': 1, 'id': '0x1', 'r_frame_rate': '50/1', 'avg_frame_rate': '50/1', 'time_base': '1/12800', 'start_pts': 0, 'start_time': '0.000000', 'duration_ts': 384000, 'duration': '30.000000', 'bit_rate': '5591491', 'nb_frames': '1500', 'extradata_size': 2202, 'disposition': {'default': 1, 'dub': 0, 'original': 0, 'comment': 0, 'lyrics': 0, 'karaoke': 0, 'forced': 0, 'hearing_impaired': 0, 'visual_impaired': 0, 'clean_effects': 0, 'attached_pic': 0, 'timed_thumbnails': 0, 'captions': 0, 'descriptions': 0, 'metadata': 0, 'dependent': 0, 'still_image': 0}, 'tags': {'language': 'und', 'handler_name': 'VideoHandler', 'vendor_id': '[0][0][0][0]'}}], 'format': {'filename': 'test_vids/encoded/smithyHEVC_cf34.mp4', 'nb_streams': 1, 'nb_programs': 0, 'format_name': 'mov,mp4,m4a,3gp,3g2,mj2', 'format_long_name': 'QuickTime / MOV', 'start_time': '0.000000', 'duration': '30.000000', 'size': '20990930', 'bit_rate': '5597581', 'probe_score': 100, 'tags': {'major_brand': 'isom', 'minor_version': '512', 'compatible_brands': 'isomiso2mp41', 'encoder': 'Lavf59.22.100'}}}\n"
     ]
    }
   ],
   "source": [
    "import subprocess\n",
    "import json\n",
    "command=\"ffprobe -v error -select_streams v:0 -show_entries format:stream -print_format json test_vids/encoded/smithyHEVC_cf34.mp4\"\n",
    "cout = subprocess.run(command.split(), stdout=subprocess.PIPE, stderr=subprocess.STDOUT).stdout\n",
    "dict = json.loads(cout)  # Convert data from JSON string to dictionary\n",
    "print(dict)"
   ]
  },
  {
   "cell_type": "code",
   "execution_count": 6,
   "id": "f5c2ebfb",
   "metadata": {},
   "outputs": [
    {
     "name": "stdout",
     "output_type": "stream",
     "text": [
      "[2. 3.]\n"
     ]
    }
   ],
   "source": [
    "import numpy as np\n",
    "A = [[1,2,3],[3,3,3]]\n",
    "print(np.einsum('ij->i', A)/3)"
   ]
  },
  {
   "cell_type": "code",
   "execution_count": 28,
   "id": "ad3d5065",
   "metadata": {
    "scrolled": true
   },
   "outputs": [
    {
     "name": "stderr",
     "output_type": "stream",
     "text": [
      "ffmpeg version N-106635-g83e1a1de88 Copyright (c) 2000-2022 the FFmpeg developers\n",
      "  built with gcc 9 (Ubuntu 9.4.0-1ubuntu1~20.04.1)\n",
      "  configuration: --prefix=/home/ubuntu/ffmpeg_build --pkg-config-flags=--static --extra-cflags=-I/home/ubuntu/ffmpeg_build/include --extra-ldflags=-L/home/ubuntu/ffmpeg_build/lib --extra-libs='-lpthread -lm' --ld=g++ --bindir=/home/ubuntu/bin --enable-gpl --enable-gnutls --enable-libaom --enable-libass --enable-libfdk-aac --enable-libfreetype --enable-libmp3lame --enable-libopus --enable-libsvtav1 --enable-libdav1d --enable-libvorbis --enable-libvpx --enable-libx264 --enable-libx265 --enable-libvmaf --enable-version3 --enable-nonfree\n",
      "  libavutil      57. 24.101 / 57. 24.101\n",
      "  libavcodec     59. 26.100 / 59. 26.100\n",
      "  libavformat    59. 22.100 / 59. 22.100\n",
      "  libavdevice    59.  6.100 / 59.  6.100\n",
      "  libavfilter     8. 33.100 /  8. 33.100\n",
      "  libswscale      6.  6.100 /  6.  6.100\n",
      "  libswresample   4.  6.100 /  4.  6.100\n",
      "  libpostproc    56.  5.100 / 56.  5.100\n",
      "Input #0, yuv4mpegpipe, from 'test_vids/srcRAW_FullHD/rush_field_cuts_1080p.y4m':\n",
      "  Duration: 00:00:19.02, start: 0.000000, bitrate: 994335 kb/s\n",
      "  Stream #0:0: Video: rawvideo (Y42B / 0x42323459), yuv422p(progressive), 1920x1080, SAR 1:1 DAR 16:9, 29.97 fps, 29.97 tbr, 29.97 tbn\n",
      "Stream mapping:\n",
      "  Stream #0:0 -> #0:0 (rawvideo (native) -> rawvideo (native))\n",
      "Press [q] to stop, [?] for help\n",
      "Output #0, rawvideo, to 'test_vids/tempRAW_refs/test.yuv':\n",
      "  Metadata:\n",
      "    encoder         : Lavf59.22.100\n",
      "  Stream #0:0: Video: rawvideo (I420 / 0x30323449), yuv420p(tv, progressive), 1920x1080 [SAR 1:1 DAR 16:9], q=2-31, 745750 kb/s, 29.97 fps, 29.97 tbn\n",
      "    Metadata:\n",
      "      encoder         : Lavc59.26.100 rawvideo\n",
      "frame=  570 fps=319 q=-0.0 Lsize= 1731375kB time=00:00:19.01 bitrate=745750.2kbits/s speed=10.6x    \n",
      "video:1731375kB audio:0kB subtitle:0kB other streams:0kB global headers:0kB muxing overhead: 0.000000%\n"
     ]
    },
    {
     "data": {
      "text/plain": [
       "0"
      ]
     },
     "execution_count": 28,
     "metadata": {},
     "output_type": "execute_result"
    }
   ],
   "source": [
    "import subprocess\n",
    "c_seq = \"ffmpeg -i test_vids/srcRAW_FullHD/rush_field_cuts_1080p.y4m \\\n",
    "        -pix_fmt yuv420p test_vids/tempRAW_refs/test.yuv\"\n",
    "subprocess.call(c_seq, shell=True)"
   ]
  },
  {
   "cell_type": "code",
   "execution_count": null,
   "id": "95d56865",
   "metadata": {},
   "outputs": [],
   "source": [
    "import csv\n",
    "import json\n",
    "\n",
    "source = \"testscene\"\n",
    "data_list = []\n",
    "\n",
    "json_file = \"rd_results/rd_\" + source + \".json\"\n",
    "with open(json_file, 'r') as r:\n",
    "    i_data = json.load(r)\n",
    "for item in i_data:\n",
    "    v_entry = []\n",
    "    for meta, value in item.items():\n",
    "        v_entry.append(value)\n",
    "    data_list.append(v_entry)\n",
    "    \n",
    "header = [\"index\", \"content\", \"file\", \"codec\", \"width\", \"height\", \"fps\", \"crf\", \"bitrate\", \"vmaf\", \"psnr\"]\n",
    "\n",
    "csv_file = \"rd_results/rd_\" + source + \".csv\"\n",
    "with open(csv_file, \"w\") as file:\n",
    "    csv_writer = csv.writer(file)\n",
    "    csv_writer.writerow(header)\n",
    "    for row in data_list:\n",
    "        csv_writer.writerow(row)"
   ]
  },
  {
   "cell_type": "code",
   "execution_count": 5,
   "id": "a82793b7",
   "metadata": {},
   "outputs": [
    {
     "name": "stdout",
     "output_type": "stream",
     "text": [
      "/home/ubuntu/video_dynopt/test_vids/srcRAW_FullHD/rush_field_cuts_1080p.y4m\n"
     ]
    }
   ],
   "source": [
    "import tkinter as tk\n",
    "from tkinter import filedialog\n",
    "\n",
    "root = tk.Tk()\n",
    "root.withdraw()\n",
    "\n",
    "file_path = filedialog.askopenfilename()\n",
    "print(file_path)"
   ]
  },
  {
   "cell_type": "code",
   "execution_count": 40,
   "id": "09454ae2",
   "metadata": {},
   "outputs": [
    {
     "name": "stdout",
     "output_type": "stream",
     "text": [
      "Input #0, mov,mp4,m4a,3gp,3g2,mj2, from 'test_vids/temp_encoded/1/27_AVC.mp4':\n",
      "  Metadata:\n",
      "    major_brand     : isom\n",
      "    minor_version   : 512\n",
      "    compatible_brands: isomiso2avc1mp41\n",
      "    encoder         : Lavf59.22.100\n",
      "  Duration: 00:00:02.00, start: 0.000000, bitrate: 8674 kb/s\n",
      "  Stream #0:0[0x1](und): Video: h264 (High) (avc1 / 0x31637661), yuv420p(progressive), 1920x1080, 8672 kb/s, 29.97 fps, 29.97 tbr, 11988 tbn (default)\n",
      "    Metadata:\n",
      "      handler_name    : VideoHandler\n",
      "      vendor_id       : [0][0][0][0]\n",
      "pict_type=I\n"
     ]
    }
   ],
   "source": [
    "!ffprobe -hide_banner -show_frames test_vids/temp_encoded/1/27_AVC.mp4 | grep \"pict_type=I\""
   ]
  },
  {
   "cell_type": "code",
   "execution_count": null,
   "id": "924cfec1",
   "metadata": {},
   "outputs": [],
   "source": []
  }
 ],
 "metadata": {
  "kernelspec": {
   "display_name": "Python 3 (ipykernel)",
   "language": "python",
   "name": "python3"
  },
  "language_info": {
   "codemirror_mode": {
    "name": "ipython",
    "version": 3
   },
   "file_extension": ".py",
   "mimetype": "text/x-python",
   "name": "python",
   "nbconvert_exporter": "python",
   "pygments_lexer": "ipython3",
   "version": "3.8.10"
  }
 },
 "nbformat": 4,
 "nbformat_minor": 5
}
